# xmcd
#
# Track frame offsets: 
#        150
#        12279
#        22262
#        31897
#        41841
#        55283
#        67184
#        77587
#        89479
#        101419
#        112805
#        124592
#
# Disc length: 1846 seconds
#
# Revision: 2
# Processed by: cddbd v1.5.2PL0 Copyright (c) Steve Scherf et al.
# Submitted via: ExactAudioCopyFreeDBPlugin 1.0
#
DISCID=9907340c
DTITLE=Loretta Lynn - Icon
DYEAR=2011
DGENRE=Country
TTITLE0=Blue Kentucky Girl
TTITLE1=You Ain't Woman Enough (To Take My Man)
TTITLE2=Don't Come Home A Drinkin' (With Lovin' On Your Mind)
TTITLE3=Fist City
TTITLE4=Coal Miner's Daughter
TTITLE5=After The Fire Is Gone (Duet With Conway Twitty)
TTITLE6=You're Looking At Country
TTITLE7=One's On The Way
TTITLE8=Rated X
TTITLE9=Louisiana Woman, Mississippi Man (Duet With Conway Twitty)
TTITLE10=The Pill
TTITLE11=She's Got You
EXTD=
EXTT0=
EXTT1=
EXTT2=
EXTT3=
EXTT4=
EXTT5=
EXTT6=
EXTT7=
EXTT8=
EXTT9=
EXTT10=
EXTT11=
PLAYORDER=
